<?xml version="1.0" encoding="UTF-8" standalone="no"?>
<!-- Created with Inkscape (http://www.inkscape.org/) -->

<svg
   xmlns:dc="http://purl.org/dc/elements/1.1/"
   xmlns:cc="http://creativecommons.org/ns#"
   xmlns:rdf="http://www.w3.org/1999/02/22-rdf-syntax-ns#"
   xmlns:svg="http://www.w3.org/2000/svg"
   xmlns="http://www.w3.org/2000/svg"
   xmlns:sodipodi="http://sodipodi.sourceforge.net/DTD/sodipodi-0.dtd"
   xmlns:inkscape="http://www.inkscape.org/namespaces/inkscape"
   width="210mm"
   height="297mm"
   viewBox="0 0 210 297"
   version="1.1"
   id="svg8"
   inkscape:version="0.92.4 5da689c313, 2019-01-14"
   sodipodi:docname="wug.svg">
  <defs
     id="defs2" />
  <sodipodi:namedview
     id="base"
     pagecolor="#ffffff"
     bordercolor="#666666"
     borderopacity="1.0"
     inkscape:pageopacity="0.0"
     inkscape:pageshadow="2"
     inkscape:zoom="1.858365"
     inkscape:cx="583.18064"
     inkscape:cy="330.66077"
     inkscape:document-units="mm"
     inkscape:current-layer="layer1"
     showgrid="false"
     inkscape:window-width="1364"
     inkscape:window-height="766"
     inkscape:window-x="1"
     inkscape:window-y="1"
     inkscape:window-maximized="0" />
  <metadata
     id="metadata5">
    <rdf:RDF>
      <cc:Work
         rdf:about="">
        <dc:format>image/svg+xml</dc:format>
        <dc:type
           rdf:resource="http://purl.org/dc/dcmitype/StillImage" />
        <dc:title />
      </cc:Work>
    </rdf:RDF>
  </metadata>
  <g
     inkscape:label="Layer 1"
     inkscape:groupmode="layer"
     id="layer1">
    <path
       style="fill:#000000;stroke-width:0.26458332"
       d="m 88.3201,280.17507 c -0.31894,-0.12711 -0.78265,-0.54057 -1.03048,-0.9188 -0.79411,-1.21197 -0.16114,-1.86716 3.49641,-3.61915 2.21767,-1.06228 3.35209,-1.76271 3.67228,-2.2674 0.25482,-0.40164 0.73037,-1.02793 1.05678,-1.39174 0.59472,-0.66286 1.24237,-2.92703 1.70284,-5.95312 0.13285,-0.87313 0.59875,-3.31391 1.03532,-5.42396 0.43658,-2.11005 0.70764,-3.92551 0.60236,-4.03435 -0.10528,-0.10884 -1.07867,-0.0828 -2.1631,0.058 -3.07278,0.39877 -13.65698,0.31784 -17.582103,-0.13443 -3.632436,-0.41855 -10.211099,-1.06802 -13.096875,-1.29298 -0.945885,-0.0737 -3.148541,-0.31295 -4.894791,-0.53159 -3.282699,-0.411 -5.556427,-0.6426 -13.229167,-1.34746 -9.023812,-0.82898 -15.316249,-1.97865 -16.86476,-3.08128 -0.67559,-0.48106 -0.730031,-0.65526 -0.730031,-2.33588 0,-1.70256 0.04803,-1.85025 0.768448,-2.36323 0.422646,-0.30095 0.880679,-0.54719 1.01785,-0.54719 0.13717,0 0.491064,-0.20836 0.786429,-0.46302 2.351783,-2.02769 3.131166,-2.61491 3.785438,-2.85212 0.858205,-0.31114 1.842117,-1.197 5.019458,-4.51923 3.684677,-3.85271 4.200633,-5.72057 4.413607,-15.97813 0.111591,-5.37467 0.04823,-7.93794 -0.271444,-10.9802 -0.229362,-2.18282 -0.486846,-6.11188 -0.572188,-8.73126 -0.08534,-2.61937 -0.275944,-5.77453 -0.423555,-7.01145 -0.147614,-1.23693 -0.363985,-3.61818 -0.480828,-5.29167 -0.116842,-1.67349 -0.586488,-4.94771 -1.043654,-7.27604 -0.788426,-4.01543 -1.099717,-5.15846 -2.594001,-9.525 -2.157323,-6.30404 -3.447524,-11.3689 -3.808032,-14.94896 -0.139213,-1.38245 -0.371914,-3.22792 -0.517114,-4.10104 -0.640575,-3.8519 -0.730205,-5.39905 -0.666772,-11.50938 0.06305,-6.07349 0.118976,-6.73257 0.886786,-10.45104 0.834138,-4.03969 1.282493,-5.52122 3.162794,-10.45104 0.58279,-1.52797 1.386645,-3.79016 1.786345,-5.02708 0.66131,-2.0465 2.686373,-5.80353 3.977952,-7.38015 2.043235,-2.49417 3.890341,-4.39524 5.879463,-6.05125 10.674024,-8.88646 15.113303,-12.015135 21.885859,-15.424516 2.474928,-1.245904 4.976116,-2.522323 5.558199,-2.836484 1.170178,-0.631563 5.064977,-2.438858 5.255847,-2.438858 0.0665,0 0.99476,-0.405016 2.06276,-0.900038 1.06799,-0.49502 2.77525,-1.21733 3.79389,-1.605135 1.01865,-0.387805 2.26881,-0.865819 2.77813,-1.062257 2.09102,-0.806474 9.33371,-2.84104 12.30312,-3.456104 0.43657,-0.09043 0.97235,-0.235347 1.19063,-0.322043 0.21828,-0.0867 0.57547,-0.187655 0.79375,-0.224356 0.21828,-0.0367 1.82562,-0.44533 3.57187,-0.908068 5.49985,-1.457402 6.69998,-1.561344 17.8488,-1.545852 5.71142,0.0079 10.82326,0.132178 11.62061,0.282435 1.10479,0.20819 1.47055,0.192246 1.63338,-0.07121 0.23058,-0.373099 0.91244,-0.371874 12.95034,0.02326 6.27242,0.205894 7.30428,0.304591 9.78958,0.936371 1.52797,0.388422 3.31391,0.98188 3.96875,1.318795 0.65484,0.336912 1.70394,0.762651 2.33132,0.946084 0.62739,0.183432 1.25247,0.542345 1.38907,0.797583 0.36,0.672674 0.30455,2.437546 -0.0937,2.982188 -0.32325,0.442076 -0.43872,0.428106 -2.09985,-0.254066 L 168.17634,77.958308 166.6946,78.708 c -2.0416,1.032952 -6.47171,5.800489 -7.434,8.000217 -0.30125,0.688641 -0.8174,1.827929 -1.14699,2.53175 -0.3296,0.703821 -0.70096,2.013508 -0.82527,2.910417 -1.17564,8.482966 -1.10377,13.298536 0.22541,15.101656 0.11653,0.15808 0.5516,1.12086 0.96681,2.1395 0.41521,1.01865 1.27153,2.93438 1.90294,4.25718 0.63141,1.3228 1.3361,3.0492 1.56598,3.83646 0.22989,0.78725 0.8068,2.14574 1.28203,3.01886 0.47524,0.87313 1.13549,2.30188 1.46724,3.175 0.33175,0.87313 0.82563,2.02043 1.09752,2.54957 0.2719,0.52914 0.49301,1.12445 0.49136,1.32291 -0.003,0.3652 0.97687,3.15116 3.05837,8.69523 0.6283,1.67349 1.21739,3.51896 1.3091,4.10104 0.43939,2.78902 1.84701,6.28703 3.56675,8.86355 1.15488,1.73025 2.5468,6.02846 2.90587,8.97323 0.14931,1.2245 0.67767,3.90341 1.17413,5.95313 1.34166,5.53927 1.47965,6.45641 1.77481,11.79655 0.62241,11.26057 0.43527,14.20008 -1.65069,25.92917 -0.93823,5.27554 -2.88902,11.67441 -4.55741,14.94896 -0.78237,1.53556 -2.28627,4.8485 -2.28627,5.03642 0,0.17306 -1.70515,2.61974 -2.85161,4.0917 -2.25348,2.89331 -6.52756,6.61542 -10.77295,9.38172 -0.86654,0.56463 -4.95695,2.91429 -7.27752,4.18044 -0.80037,0.43669 -1.87193,1.05713 -2.38125,1.37875 -0.50933,0.32162 -1.2605,0.78978 -1.66928,1.04036 l -0.74324,0.45559 0.5469,0.84355 c 0.3008,0.46395 0.97394,1.73652 1.49588,2.82793 0.52193,1.0914 1.15663,2.40109 1.41044,2.91041 0.2538,0.50933 0.72523,2.05714 1.04761,3.43959 0.32238,1.38244 0.81955,3.40651 1.10482,4.49791 0.28527,1.09141 0.67977,2.75828 0.87666,3.70417 0.19689,0.94589 0.54627,2.4937 0.7764,3.43958 0.23013,0.94589 0.55537,2.6723 0.72276,3.83646 0.16738,1.16417 0.35297,2.1672 0.41242,2.22893 0.0595,0.0617 0.91086,-0.22185 1.89201,-0.63024 2.40622,-1.00155 6.22119,-1.23965 8.55252,-0.53377 1.76847,0.53544 1.95842,0.69909 2.2174,1.91032 0.16402,0.76711 0.10666,0.88778 -0.53852,1.13311 -0.40967,0.15573 -1.37529,0.20063 -2.23179,0.10371 -1.65353,-0.18706 -5.69125,0.25871 -6.82398,0.7534 -0.39305,0.17167 -1.13304,0.64006 -1.64442,1.0409 -1.26912,0.99475 -2.3864,1.18605 -3.40677,0.5833 -0.69742,-0.41195 -0.86533,-0.73893 -1.20359,-2.34357 -0.21619,-1.02566 -0.57947,-3.38384 -0.80726,-5.24037 -0.22779,-1.85655 -0.53724,-3.69925 -0.68766,-4.09489 -0.3684,-0.96897 -1.28298,-5.10373 -1.96715,-8.89343 -0.20617,-1.142 -0.69126,-2.86841 -1.07798,-3.83646 -1.12112,-2.80643 -2.65953,-6.03729 -2.96447,-6.22575 -0.15423,-0.0953 -0.72193,0.12632 -1.26157,0.49252 -0.53963,0.36621 -1.24781,0.66583 -1.57372,0.66583 -0.32591,0 -1.23203,0.28228 -2.0136,0.62728 -4.92384,2.17351 -7.20965,3.09803 -8.96166,3.62466 -1.24731,0.37493 -2.23054,0.85504 -2.64712,1.2926 -0.51522,0.54115 -1.10421,0.76882 -2.64583,1.02275 -2.57717,0.42451 -5.20183,1.02587 -7.67163,1.75775 -3.33514,0.98829 -4.51118,1.22167 -7.53818,1.49588 -4.86591,0.4408 -6.72247,0.78265 -6.85273,1.26179 -0.75769,2.78717 -3.07159,15.49748 -3.07159,16.87233 v 1.34184 l 1.25677,0.44325 c 2.05605,0.72517 3.3168,1.42873 4.50257,2.51262 1.23465,1.12861 1.44286,2.03332 0.63597,2.76355 -0.77936,0.70532 -1.84473,0.51416 -3.98806,-0.71552 -2.70559,-1.55228 -3.71993,-1.84803 -5.81812,-1.69637 -1.66773,0.12051 -4.41409,1.19583 -5.58496,2.18672 -0.59124,0.50036 -1.38286,0.65342 -2.0351,0.39347 z m 10.35803,-27.32684 1.03974,-0.35997 0.5989,-3.55045 c 0.3294,-1.95275 0.71853,-4.26483 0.86475,-5.13795 0.14621,-0.87313 0.3458,-3.01625 0.44353,-4.7625 0.0977,-1.74625 0.29547,-3.32383 0.43943,-3.50573 0.14397,-0.1819 0.53191,-0.33073 0.8621,-0.33073 0.96161,0 1.45153,1.61512 1.45153,4.78525 0,1.48806 -0.13314,2.90665 -0.3025,3.22311 -0.33811,0.63177 -0.99853,5.46416 -1.01181,7.40362 -0.009,1.2722 0.32938,1.60671 0.9732,0.96288 0.16597,-0.16596 1.48661,-0.32845 3.03401,-0.3733 1.84107,-0.0534 3.25951,-0.25184 4.32309,-0.60491 0.87064,-0.28901 3.13078,-0.89204 5.02256,-1.34005 1.89177,-0.44801 4.39208,-1.04198 5.55625,-1.31993 1.16416,-0.27796 3.24776,-0.89075 4.6302,-1.36176 1.38245,-0.47102 3.7637,-1.27179 5.29167,-1.77949 1.52797,-0.50771 4.1218,-1.56589 5.76407,-2.35153 2.15099,-1.02901 3.16695,-1.383 3.63329,-1.26595 0.47019,0.118 0.87143,-0.0261 1.46613,-0.52649 0.45033,-0.37892 0.99522,-0.68895 1.21088,-0.68895 0.47694,0 5.37503,-2.4792 6.84334,-3.46381 0.58208,-0.39032 2.04674,-1.24015 3.2548,-1.8885 3.38423,-1.81627 6.34303,-4.4955 10.32532,-9.34966 0.2467,-0.30071 0.63404,-0.6579 0.86076,-0.79375 0.36822,-0.22063 3.15391,-4.17785 3.15391,-4.48029 0,-0.0671 0.39475,-0.74944 0.87722,-1.51625 0.48248,-0.76681 1.09314,-1.87045 1.35702,-2.45253 0.26389,-0.58208 0.87551,-1.89177 1.35917,-2.91042 0.99247,-2.09025 1.96284,-4.88625 1.96284,-5.65566 0,-0.73757 1.46683,-8.07964 2.35882,-11.80684 1.53819,-6.42735 1.69352,-12.27144 0.56258,-21.16667 -0.55207,-4.34224 -0.85545,-5.98968 -1.48608,-8.06979 -0.19854,-0.65484 -0.55175,-2.08359 -0.78493,-3.175 -0.23317,-1.0914 -0.58243,-2.46062 -0.77612,-3.04271 -0.1937,-0.58208 -0.60824,-2.01083 -0.9212,-3.175 -0.92839,-3.4534 -2.12647,-7.23411 -3.18609,-10.05416 -0.54679,-1.45521 -1.18027,-3.30068 -1.40774,-4.10104 -0.82792,-2.91313 -1.72811,-5.50278 -3.21904,-9.26042 -0.8372,-2.11005 -1.86294,-4.82361 -2.27942,-6.03012 -0.41647,-1.20652 -1.46135,-3.6473 -2.32194,-5.42396 -0.86061,-1.77666 -1.7076,-3.92892 -1.88222,-4.78278 -0.17461,-0.85387 -0.66332,-2.13903 -1.08601,-2.85592 -0.42269,-0.71688 -0.76853,-1.35897 -0.76853,-1.42685 0,-0.0679 -0.59134,-1.34256 -1.31409,-2.83263 -1.54483,-3.1849 -2.34775,-6.67396 -2.57185,-11.175869 -0.2341,-4.702842 1.03153,-9.525635 3.2879,-12.52881 0.3666,-0.487926 0.77668,-1.380894 0.91129,-1.984375 0.32155,-1.441444 2.07174,-4.106341 3.39559,-5.170215 0.57952,-0.465711 1.05366,-0.982289 1.05366,-1.147953 0,-0.165666 0.25888,-0.576773 0.57529,-0.913574 l 0.57529,-0.612365 h -1.05586 c -0.58073,0 -1.70281,-0.111027 -2.49352,-0.246727 -0.79071,-0.135699 -2.18584,-0.31814 -3.10028,-0.405426 -0.91444,-0.08728 -2.28366,-0.276913 -3.04271,-0.421397 -0.75904,-0.144483 -7.08958,-0.327358 -14.06785,-0.406389 -6.97827,-0.07903 -13.16952,-0.230278 -13.75833,-0.336106 -1.60255,-0.28803 -9.38788,0.641684 -12.05078,1.439088 -2.89981,0.868349 -3.60814,1.054983 -6.48229,1.707983 -1.30968,0.297556 -2.6789,0.641527 -3.04271,0.764381 -0.83203,0.280967 -2.95681,0.885548 -5.68854,1.618594 -1.16416,0.312399 -3.3639,1.09283 -4.88829,1.734291 -1.52439,0.641461 -2.91373,1.166291 -3.08741,1.166291 -0.17369,0 -0.65286,0.166958 -1.06483,0.371018 -0.41198,0.204059 -1.52296,0.691266 -2.46884,1.082683 -3.20097,1.324594 -15.330073,7.532187 -16.584952,8.488068 -0.463233,0.352862 -0.972984,0.641565 -1.132782,0.641565 -0.159798,0 -0.349208,0.152884 -0.420913,0.339743 -0.0717,0.186857 -0.663281,0.630854 -1.314614,0.986661 -0.651332,0.355806 -1.18424,0.738703 -1.18424,0.850881 0,0.112181 -0.238125,0.203965 -0.529167,0.203965 -0.291041,0 -0.529166,0.09339 -0.529166,0.207536 0,0.114147 -0.346237,0.412065 -0.769417,0.662043 -0.98271,0.580502 -2.70493,1.983058 -4.389958,3.575135 -1.750814,1.65423 -3.537755,3.20784 -4.626002,4.02196 -2.278337,1.70441 -5.890765,5.64067 -7.214962,7.86172 -1.406266,2.35872 -1.714439,3.0455 -2.052286,4.57369 -0.273364,1.23651 -0.954068,3.21618 -1.865016,5.42396 -0.120086,0.29104 -0.587769,1.42214 -1.039296,2.51354 -0.451525,1.09141 -1.258255,3.82985 -1.792729,6.08542 -0.888193,3.74831 -0.983888,4.53342 -1.112616,9.12812 -0.153326,5.47261 0.08766,10.91577 0.538845,12.17084 0.156938,0.43656 0.346414,1.98437 0.421058,3.43958 0.131496,2.5636 0.652383,5.92149 1.128686,7.27604 0.127926,0.3638 0.49149,1.55443 0.807924,2.64584 0.316431,1.0914 0.744741,2.37536 0.951802,2.85324 0.207057,0.47788 0.376467,1.0399 0.376467,1.24893 0,0.20903 0.277747,1.00867 0.617218,1.77696 0.76441,1.73004 1.038849,2.7378 1.749432,6.42399 0.308568,1.60073 0.741466,3.74386 0.961994,4.7625 0.220525,1.01865 0.518281,3.80467 0.661683,6.19116 0.143399,2.3865 0.325572,4.44401 0.404828,4.57224 0.07925,0.12824 0.250211,2.87863 0.379902,6.11197 0.129691,3.23334 0.408646,7.66474 0.6199,9.84755 0.443156,4.57897 0.538282,13.08506 0.189368,16.93333 -0.233871,2.57944 -1.058733,6.60652 -1.680022,8.20209 -0.376023,0.96568 -2.017969,3.30729 -2.319089,3.30729 -0.119475,0 -0.633272,0.56554 -1.14177,1.25677 -0.508497,0.69122 -1.415663,1.61396 -2.015921,2.05052 -1.22138,0.88829 -3.964413,2.96013 -5.174398,3.90826 -1.397703,1.09523 -3.252178,2.04726 -3.854738,1.97891 -0.321664,-0.0365 -0.638222,0.0842 -0.703461,0.26816 -0.185838,0.52405 1.592302,1.12071 3.339931,1.12071 0.86727,0 2.448671,0.1208 3.514227,0.26845 1.065557,0.14765 3.306593,0.37988 4.980083,0.51606 1.673489,0.13619 4.173802,0.36695 5.55625,0.51281 1.382448,0.14586 4.061354,0.39921 5.953124,0.56299 1.891771,0.16379 4.570677,0.45745 5.953125,0.65259 1.382448,0.19514 4.239948,0.49049 6.35,0.65633 2.110052,0.16584 4.491302,0.4096 5.291667,0.54169 0.800364,0.13208 3.47927,0.37415 5.953124,0.53794 2.473857,0.16379 4.557447,0.36188 4.630207,0.4402 0.28873,0.31081 13.36793,-0.17528 14.40835,-0.53548 z m 18.00311,-133.26389 c -2.95339,-0.75928 -4.3269,-2.39428 -4.55599,-5.42337 -0.24866,-3.28793 0.39468,-5.0154 2.78217,-7.47055 1.34115,-1.37915 1.75915,-1.64974 2.78655,-1.8038 2.86257,-0.42927 5.79068,1.22736 7.27529,4.11612 0.76127,1.48129 0.85779,1.88231 0.71707,2.97912 -0.42026,3.27576 -3.04096,6.64472 -5.81197,7.47143 -1.41399,0.42185 -1.97276,0.44479 -3.19312,0.13105 z M 47.228116,93.497677 c -1.009846,-0.423603 -3.175,-3.349821 -3.175,-4.291028 0,-0.32938 1.034079,-1.429139 2.820712,-2.999867 1.551393,-1.363914 3.637603,-3.27546 4.636027,-4.247878 l 1.815317,-1.768036 -0.998009,-0.744 c -0.548902,-0.409202 -1.057537,-0.804212 -1.130297,-0.8778 -0.386083,-0.390475 -4.269629,-3.717047 -5.313119,-4.551117 -1.129123,-0.902512 -2.885617,-2.651675 -9.380188,-9.341014 -1.41284,-1.455208 -3.268292,-3.657865 -4.123229,-4.894792 -2.875026,-4.159599 -3.270168,-4.68127 -5.062109,-6.683036 -0.982266,-1.097285 -1.785938,-2.167673 -1.785938,-2.378639 0,-0.55536 -1.743355,-3.75589 -2.799626,-5.139679 -0.68324,-0.895093 -0.90454,-1.445308 -0.90454,-2.248948 0,-0.94139 0.159997,-1.214242 1.389062,-2.368841 2.665643,-2.504138 9.962512,-6.988863 12.633854,-7.764883 0.880705,-0.255842 2.996401,-1.211919 6.217708,-2.809759 1.455209,-0.721818 3.003021,-1.417799 3.439583,-1.546627 1.938581,-0.572069 5.701065,-1.975247 7.276042,-2.713519 1.828093,-0.856922 2.523368,-1.16057 4.630208,-2.022156 0.727604,-0.297551 2.275417,-0.951856 3.439583,-1.454011 1.164167,-0.502154 2.592917,-1.060596 3.175,-1.240981 0.582084,-0.180386 1.713177,-0.538838 2.513542,-0.79656 5.028284,-1.619134 8.037147,-2.472062 11.683018,-3.311805 3.010563,-0.693413 3.112273,-0.699568 4.267893,-0.258234 0.77661,0.29659 1.29186,0.694178 1.4979,1.155831 0.17274,0.387047 0.59559,1.120441 0.93966,1.629764 0.34407,0.509323 0.76226,1.699948 0.92931,2.645833 0.16705,0.945885 0.59848,2.791354 0.95874,4.101042 1.24052,4.509825 3.01859,15.414964 4.46353,27.375424 0.37738,3.123774 0.72776,5.721207 0.77863,5.772076 0.0509,0.05087 0.55099,-0.02907 1.11138,-0.177636 3.23476,-0.857583 8.07997,-1.408538 12.1314,-1.379477 1.71184,0.01228 2.20463,0.718818 2.43734,3.49462 0.24759,2.953247 -0.13794,3.543398 -2.49738,3.822925 -1.8621,0.220607 -3.34072,0.581906 -4.90117,1.197602 -0.76384,0.301381 -2.1705,0.641837 -3.12592,0.756573 -1.78781,0.214696 -8.44638,2.495762 -10.56389,3.618937 -0.65369,0.346728 -1.34599,0.630415 -1.53845,0.630415 -0.19247,0 -0.90779,0.223694 -1.58961,0.497099 -0.68182,0.273404 -2.2517,0.877347 -3.488632,1.342093 -1.236927,0.464746 -2.606145,1.117338 -3.042708,1.450208 -0.436562,0.332867 -1.448594,0.943253 -2.248958,1.35641 -0.800365,0.413158 -1.51474,0.82704 -1.5875,0.91974 -0.07276,0.0927 -0.906198,0.590264 -1.852083,1.105704 -0.945886,0.515437 -2.374636,1.293934 -3.175,1.729989 -2.023407,1.102397 -4.150519,2.431137 -5.55625,3.470815 -0.654844,0.484319 -1.470472,0.989401 -1.812507,1.122399 -1.144302,0.444955 -4.092747,2.725301 -6.642354,5.13724 -4.47748,4.235715 -4.954074,4.490064 -6.890972,3.677584 z"
       id="path79"
       inkscape:connector-curvature="0"
       sodipodi:nodetypes="ccsccccsccccssscscccscscssscsssssccscsccccccscccccccccccccccccsccccccccsscssscccccccccccscccccsccccccccssccscccccccscccccccccccccccssccccccccccccscsccscccssscccccccccccscscccsscscccssssccsscccscssssccccsccsscscscscccccssscscccccsscscsscsccsccccccscsssccccsssssssccsssccssscsscsccscscscscccsscccssc" />
    <path
       style="fill:none;fill-opacity:1;stroke-width:2.85714293"
       d="m 219.29124,946.71009 c -41.64286,-4.46906 -79.47043,-8.20443 -84.06127,-8.30083 -8.10935,-0.17029 -7.94666,-0.43892 5.71429,-9.43503 24.05625,-15.84174 40.11335,-34.16894 43.62578,-49.79349 6.1753,-27.46994 6.49779,-46.39731 1.9352,-113.57988 -4.91983,-72.44289 -8.70345,-96.39189 -20.31355,-128.5778 -9.41976,-26.11375 -16.49387,-81.84783 -14.16163,-111.57373 1.89267,-24.1232 19.85925,-83.44579 30.48507,-100.65647 7.3155,-11.84895 51.85239,-51.80506 72.38372,-64.93879 22.60564,-14.46066 69.69981,-37.70321 96.16963,-47.46294 28.70614,-10.58429 83.78973,-24.82417 104.83339,-27.10089 18.67974,-2.02098 147.3902,2.97609 152.13148,5.90637 2.06812,1.27815 0.75652,4.54874 -3.8072,9.49363 -11.6456,12.61825 -25.34288,44.63838 -27.02351,63.17284 -1.74169,19.20753 1.85106,36.1518 13.34583,62.94232 22.625,52.73143 29.73806,71.03527 44.41251,114.28571 27.32672,80.54072 38.60029,136.79732 34.30646,171.19378 -4.66437,37.36485 -15.44786,81.0574 -24.90837,100.92385 -18.51492,38.88015 -51.90094,70.15383 -96.4964,90.39109 -43.17789,19.59394 -108.08952,39.71148 -143.97931,44.62237 l -13.97931,1.9128 1.88932,-12.37909 c 4.98156,-32.63985 5.13014,-40.95234 0.83401,-46.66031 -2.36363,-3.14037 -5.17919,-4.82811 -6.25679,-3.75049 -1.07761,1.0776 -3.1529,12.62795 -4.61175,25.66746 -1.45885,13.03949 -3.65528,27.58434 -4.88096,32.32192 l -2.2285,8.61377 -39.82193,0.44368 c -26.92827,0.30003 -64.3369,-2.18723 -115.53621,-7.68185 z M 465.4535,444.97141 c 7.19757,-6.51369 11.84968,-20.02858 9.76014,-28.35407 -2.76686,-11.024 -15.17889,-21.24051 -25.80506,-21.24051 -20.704,0 -35.02397,32.2971 -21.76763,49.09446 9.14095,11.58264 25.32992,11.79676 37.81255,0.50012 z"
       id="path81"
       inkscape:connector-curvature="0"
       transform="scale(0.26458333)" />
    <path
       style="fill:#f25f20;fill-opacity:1;stroke-width:2.85714293"
       d="m 248.40677,952.06256 c -25.14285,-2.74258 -86.32678,-5.81419 -108.891,-10.40962 l -20.28479,-4.1312 17.7501,-10.46887 c 21.44079,-13.59734 37.91627,-28.31936 43.43323,-42.61576 4.32577,-11.20954 5.36146,-21.57874 5.11412,-64.77457 -0.50373,-87.96954 -7.62846,-135.26186 -23.67436,-184.40886 -9.52663,-29.17914 -13.84427,-66.5008 -12.09297,-104.68805 1.23951,-27.02755 1.77883,-38.133 13.13998,-69.02467 13.74932,-37.38524 21.23033,-47.33733 48.01598,-70.92304 36.9876,-32.56887 74.48097,-55.73207 125.81765,-76.38722 30.39799,-12.23052 97.22389,-30.09988 121.44675,-32.54547 8.97551,-0.90619 50.19422,-2.30048 88.59775,-0.0557 38.1588,2.23048 73.52834,8.09321 74.7874,9.35228 0.79691,0.7969 -9.69776,5.68397 -13.60216,10.89432 -3.90438,5.21036 -8.79022,7.39271 -13.77809,18.72327 -25.75672,58.50953 -12.39646,77.64743 -0.71894,105.61084 56.64318,135.63979 73.4815,183.47715 76.6415,241.27324 1.49008,27.25382 2.80784,57.43494 -3.93856,90.8828 -10.76343,53.36371 -24.23314,75.79182 -53.5578,105.22617 -23.77412,23.86302 -49.18272,38.50375 -97.42503,57.2884 -41.09777,16.00272 -123.20787,35.57963 -126.64,31.32123 -0.51671,-0.64112 1.68621,-14.06835 3.24888,-26.72889 2.87342,-23.28007 4.18747,-31.90998 -1.78944,-33.69313 -7.31163,-2.18135 -3.11989,3.68571 -6.4742,26.68291 -2.38828,16.37406 -5.40615,33.85909 -6.64633,35.82338 -1.52306,2.41234 -22.72958,5.75418 -44.85711,5.52821 -25.32234,-0.25859 -53.53083,-4.46964 -83.62256,-7.752 z m 218.2376,-510.61514 c 10.88678,-14.69334 10.13149,-26.95741 -1.34186,-38.4307 -11.84781,-8.70137 -25.12116,-5.88742 -34.14323,3.74499 -5.6468,6.02879 -7.54246,14.59647 -6.51795,27.10525 1.19049,7.65185 3.92178,12.60913 11.09243,15.9221 7.50607,3.46794 12.66387,2.75566 17.94234,0.76282 4.13352,-1.56058 8.43504,-3.94139 12.96827,-9.10446 z"
       id="path83"
       inkscape:connector-curvature="0"
       transform="scale(0.26458333)"
       sodipodi:nodetypes="cscccssssssssccsssssscssscscccscssc" />
  </g>
</svg>
